<svg width="30" height="30" viewBox="0 0 30 30" fill="none" xmlns="http://www.w3.org/2000/svg">
<g clip-path="url(#clip0_5_2)">
<path d="M15 0C6.71578 0 0 6.71578 0 15C0 23.2847 6.71578 30 15 30C23.2847 30 30 23.2847 30 15C30 6.71578 23.2847 0 15 0ZM15 28.1545C7.76297 28.1545 1.875 22.237 1.875 14.9999C1.875 7.76291 7.76297 1.87494 15 1.87494C22.237 1.87494 28.125 7.76294 28.125 14.9999C28.125 22.2369 22.237 28.1545 15 28.1545ZM21.5625 14.0625H15.9375V8.4375C15.9375 7.92 15.5175 7.5 15 7.5C14.4825 7.5 14.0625 7.92 14.0625 8.4375V14.0625H8.4375C7.92 14.0625 7.5 14.4825 7.5 15C7.5 15.5175 7.92 15.9375 8.4375 15.9375H14.0625V21.5625C14.0625 22.08 14.4825 22.5 15 22.5C15.5175 22.5 15.9375 22.08 15.9375 21.5625V15.9375H21.5625C22.08 15.9375 22.5 15.5175 22.5 15C22.5 14.4825 22.08 14.0625 21.5625 14.0625Z" fill="black"/>
</g>
<defs>
<clipPath id="clip0_5_2">
<rect width="30" height="30" fill="white"/>
</clipPath>
</defs>
</svg>
